<svg xmlns="http://www.w3.org/2000/svg" viewBox="0 0 589.59 589.5"><defs><style>.a{fill:none;}.b{fill:#837f7f;}.c{fill:#1bf704;}.d{fill:#827f7f;}.e{fill:#000100;}</style></defs><title>penguin-achievement</title><path class="a" d="M545.36,341.23h0Z" transform="translate(-8.09 -8.93)"/><path class="a" d="M108.23,332.11h0Z" transform="translate(-8.09 -8.93)"/><path d="M597.12,282.58c-.26-4.67-.78-9.32-1.21-14-.45-4.83-1.19-9.61-1.87-14.4-.85-6-2.11-12-3.44-18-1.65-7.33-3.55-14.59-5.76-21.76-2.35-7.63-4.88-15.21-7.9-22.61-2.17-5.36-4.35-10.72-6.87-15.92a304.68,304.68,0,0,0-19.34-34.63q-7.89-12-16.82-23.3c-4.19-5.28-8.63-10.32-13.15-15.32-5.83-6.44-12-12.54-18.44-18.37C495.37,78,488.1,72.15,480.57,66.54a287.78,287.78,0,0,0-34.23-22,263.58,263.58,0,0,0-29.15-13.88c-5.23-2.07-10.4-4.26-15.75-6-4.37-1.42-8.71-2.94-13.13-4.22-5.25-1.52-10.54-2.86-15.86-4.11-6.42-1.51-12.87-2.88-19.38-3.83-5.26-.78-10.54-1.47-15.83-2C329.18,9.65,321.12,9.05,313,9c-12.81-.13-25.61,0-38.36,1.55-6.53.78-13.05,1.61-19.54,2.67a286.83,286.83,0,0,0-53,14.52c-7,2.7-14,5.57-20.83,8.75-7.57,3.52-15,7.37-22.21,11.49S145,56.38,138.27,61c-4.13,2.84-8.3,5.63-12.23,8.73-5.92,4.66-11.89,9.27-17.43,14.39-4.14,3.84-8.4,7.57-12.4,11.55q-6.42,6.39-12.44,13.18a314.48,314.48,0,0,0-20.56,25.88,304.35,304.35,0,0,0-21.54,35.07q-5.4,10.32-10,21.07a314.25,314.25,0,0,0-10.9,29.91c-1.64,5.27-3,10.62-4.32,16-.86,3.61-1.75,7.22-2.5,10.85-.83,4-1.68,8.09-2.24,12.17-.75,5.5-1.66,11-2.09,16.52-.36,4.72-1.1,9.42-1.25,14.14-.18,5.42-.47,10.85-.23,15.65a274.32,274.32,0,0,0,1.53,32,285,285,0,0,0,4.91,31.06c1.68,7.73,3.65,15.39,6,22.94,2,6.49,4.08,13,6.59,19.31,2.31,5.81,4.69,11.59,7.3,17.29a303.45,303.45,0,0,0,14.07,26.94c3.46,5.9,7.17,11.64,11,17.26A281.84,281.84,0,0,0,79.2,498.18c4.34,5,8.77,9.86,13.47,14.5,3.51,3.48,7,7,10.67,10.28,5.23,4.62,10.51,9.2,16.07,13.44,5.75,4.39,11.54,8.73,17.57,12.75a300.56,300.56,0,0,0,25.92,15.54q10.09,5.37,20.6,9.88c4.57,2,9.22,3.77,13.88,5.53,6.38,2.41,12.83,4.56,19.34,6.51,8.59,2.57,17.33,4.54,26.13,6.31,5.29,1.07,10.61,1.89,15.94,2.69,4.61.69,9.28,1,13.92,1.59,6.57.78,13.17,1,19.76,1.13a265.54,265.54,0,0,0,29.17-.76c4.41-.38,8.87-.61,13.23-1.22,7.29-1,14.58-2,21.82-3.45,6.22-1.26,12.41-2.64,18.53-4.23a282,282,0,0,0,27.56-8.81c8-3,15.93-6.25,23.64-9.92a300.85,300.85,0,0,0,33.89-18.89,306.37,306.37,0,0,0,26.45-19.13A289.94,289.94,0,0,0,510.92,510c6.31-6.41,12.38-13,18.11-19.95,6-7.22,11.63-14.66,16.87-22.42a297.24,297.24,0,0,0,19.82-33.55,290.68,290.68,0,0,0,16.09-38.3c2.82-8.48,5.39-17,7.45-25.74,1.73-7.31,3.31-14.65,4.58-22,1-6,1.68-12.08,2.37-18.13.79-7,1.11-14,1.34-20.95C597.84,300.13,597.61,291.35,597.12,282.58ZM346.19,64.63c0-.64,0-1.28,0-1.92s.38-1,1.09-.81c5.85,1.23,11.73,2.3,17.5,3.9,3.91,1.08,7.85,2.07,11.73,3.28q6.83,2.16,13.55,4.64a245.36,245.36,0,0,1,33.07,15.11q9.76,5.36,19,11.62a250.75,250.75,0,0,1,22.3,16.91,265.69,265.69,0,0,1,20.74,19.81,254.08,254.08,0,0,1,23.48,29.2,235.12,235.12,0,0,1,20.92,37.08,248.47,248.47,0,0,1,13.28,36.92c1.93,7,3.39,14.12,4.83,21.23.31,1.53.1,1.79-1.57,1.79-11.11,0-22.23.09-33.34,0-3.18,0-6.35,0-9.52-.05s-6.52-.14-9.78-.19a1.47,1.47,0,0,1-1.59-1.37c-.43-1.86-.86-3.73-1.31-5.59a170.82,170.82,0,0,0-8.28-24.72A222,222,0,0,0,471,208.36c-3-5.43-6.64-10.42-10.07-15.55-2.55-3.8-5.7-7.22-8.59-10.78-4.85-6-10.37-11.29-15.78-16.72-3.37-3.39-7.15-6.36-10.72-9.54-2.63-2.33-5.46-4.37-8.27-6.41-3-2.19-6-4.38-9.22-6.36q-8-5-16.31-9.3c-3.31-1.75-6.71-3.34-10.14-4.85a185.36,185.36,0,0,0-20.13-7.56c-4.48-1.38-9-2.73-13.54-3.77-2-.45-2-.5-2-2.5q0-12.84,0-25.67h0Q346.18,77,346.19,64.63ZM58.89,251.87c1.15-3.31,1.77-6.76,2.58-10.15,1-4.11,2.29-8.1,3.52-12.13a223.86,223.86,0,0,1,10.36-27,253.73,253.73,0,0,1,14-26.35c4.27-7.09,9-13.83,13.94-20.46,2.07-2.79,4.33-5.48,6.55-8.17,2.63-3.18,5.33-6.31,8.14-9.31,4.94-5.28,9.91-10.55,15.35-15.35,3.08-2.72,6.17-5.43,9.32-8.08,3.56-3,7.26-5.81,11-8.59,5.29-3.94,10.71-7.66,16.31-11.13,6.35-3.94,12.88-7.55,19.52-11,6.81-3.51,13.82-6.56,20.92-9.38A218.27,218.27,0,0,1,233.73,67c6.44-1.74,12.89-3.46,19.42-4.83,3.5-.73,7.06-1.19,10.6-1.79,1.25-.21,2.51-.44,3.76-.7.95-.19,1.25.14,1.23,1.13-.06,3.27-.05,6.54,0,9.82.05,7.65.22,15.31.14,23-.08,6.86,0,13.72,0,20.57,0,1.18-.19,1.78-1.63,2A154.92,154.92,0,0,0,248,120.74c-3.77,1.18-7.56,2.27-11.27,3.57a158.63,158.63,0,0,0-17.62,7.31c-4.7,2.32-9.4,4.65-13.92,7.29a109.19,109.19,0,0,0-11,7c-3.56,2.66-7.32,5.06-10.86,7.75-1.42,1.08-2.54,2.52-4.13,3.47-2,1.19-3.56,3-5.34,4.56-2.15,1.82-4.26,3.8-6.26,5.85s-4.2,4.15-6.25,6.25a8.83,8.83,0,0,0-2,2.41,2.48,2.48,0,0,1-1.53,1.42,1.8,1.8,0,0,0-1.09.88c-1.56,3-4,5.28-6.18,7.73-3.69,4.18-6.63,8.87-9.76,13.41a136.4,136.4,0,0,0-9.12,15.24c-2.16,4.21-4.16,8.5-6.27,12.74a66.83,66.83,0,0,0-3.49,8.84c-.57,1.71-1.41,3.35-1.94,5.11-1.19,3.95-2.58,7.84-3.74,11.81-.33,1.15-.72,1.45-1.91,1.44-9-.07-18,0-27,0v-.11H61C58.52,254.61,58.1,254.14,58.89,251.87ZM266,544.31c0,.48,0,1,0,1.44,0,.72-.37,1-1.06.91s-1.44-.09-2.14-.22c-5.73-1.07-11.51-1.91-17.15-3.3A267.49,267.49,0,0,1,215,533.79c-7.77-2.94-15.42-6.14-22.87-9.81-7.66-3.77-15.06-8-22.35-12.47-4.9-3-9.59-6.29-14.2-9.69-4.33-3.2-8.62-6.46-12.76-9.94a264.44,264.44,0,0,1-21.1-19.76,247,247,0,0,1-29-37,242.87,242.87,0,0,1-27.77-59.77,258.94,258.94,0,0,1-8.51-38c-.2-1.34-.34-2.68-.51-4-.1-.79.21-1.21,1.05-1.2h51.35c2.54,0,2.5,0,2.92,2.44a191.92,191.92,0,0,0,10.72,39.15c1.87,4.65,4.11,9.12,6.15,13.68a192.13,192.13,0,0,0,10.68,19.46c1.38,2.31,3.31,4.23,4.56,6.64.71,1.36,1.88,2.48,2.71,3.79,1.93,3.05,4.51,5.55,6.68,8.38,1,1.35,2.61,2.31,3.14,4.06a2.7,2.7,0,0,0,.76.91c3.94,3.95,7.9,7.88,11.8,11.86,1.55,1.58,3.25,3,4.83,4.54,1.76,1.71,3.91,3.1,5.74,4.79,2.76,2.53,5.82,4.68,8.8,6.91,2.41,1.8,4.87,3.57,7.4,5.17a213.61,213.61,0,0,0,24.81,13.77A202.51,202.51,0,0,0,244,487a196,196,0,0,0,19.72,4.95c2.49.51,2.25.1,2.25,2.71Q266,519.47,266,544.31ZM548.28,342.69c-.49,2.58-.95,5.17-1.46,7.74-1.22,6.09-2.69,12.12-4.31,18.12-1.33,4.93-2.89,9.79-4.52,14.63-2.14,6.36-4.69,12.56-7.37,18.71-2.8,6.45-6,12.72-9.33,18.89A230.34,230.34,0,0,1,506,445.11c-1.85,2.57-3.9,5-5.78,7.54-3.22,4.35-6.64,8.51-10.2,12.56a231.92,231.92,0,0,1-19.33,19.58c-4.45,4-8.93,7.94-13.67,11.58a259.67,259.67,0,0,1-23.67,16.47,251.89,251.89,0,0,1-42.92,20.91,267.21,267.21,0,0,1-29,8.88c-5.27,1.3-10.59,2.27-15.89,3.38-1.12.23-1.47-.16-1.44-1.19,0-.48,0-1,0-1.44v-49.2a6,6,0,0,0,0-.95c-.18-1.41.55-2,1.83-2.28,2.26-.47,4.51-1,6.74-1.54a204.14,204.14,0,0,0,22.24-7.28,181.82,181.82,0,0,0,22.66-10.61,155.07,155.07,0,0,0,18-11.45c2.14-1.59,4.4-3.07,6.55-4.68,1.68-1.26,3.05-2.91,4.85-4s3-2.8,4.78-4a39.73,39.73,0,0,0,4.64-4.38c3.51-3.48,7-6.93,10.39-10.59,1.39-1.53,2.79-3.14,4.28-4.63a27.83,27.83,0,0,0,2.45-3c1.78-2.33,3.93-4.34,5.55-6.81,2.2-3.37,4.62-6.6,6.87-9.95a177.78,177.78,0,0,0,11.7-20.53,193.5,193.5,0,0,0,10.8-27.58,168.28,168.28,0,0,0,4.16-16.44c.45-2.15.51-2.16,2.65-2.16h50.15c.56,0,1.12,0,1.68,0C548.13,341.16,548.47,341.69,548.28,342.69Z" transform="translate(-8.09 -8.93)"/><path class="b" d="M263.72,491.93A196,196,0,0,1,244,487a202.51,202.51,0,0,1-24.07-9.32,213.61,213.61,0,0,1-24.81-13.77c-2.53-1.6-5-3.37-7.4-5.17-3-2.23-6-4.38-8.8-6.91-1.83-1.69-4-3.08-5.74-4.79-1.58-1.54-3.28-3-4.83-4.54-3.9-4-7.86-7.91-11.8-11.86a2.7,2.7,0,0,1-.76-.91c-.53-1.75-2.1-2.71-3.14-4.06-2.17-2.83-4.75-5.33-6.68-8.38-.83-1.31-2-2.43-2.71-3.79-1.25-2.41-3.18-4.33-4.56-6.64A192.13,192.13,0,0,1,128,387.38c-2-4.56-4.28-9-6.15-13.68a191.92,191.92,0,0,1-10.72-39.15c-.42-2.43-.38-2.44-2.92-2.44H56.88c-.84,0-1.15.41-1.05,1.2.17,1.35.31,2.69.51,4a258.94,258.94,0,0,0,8.51,38,242.87,242.87,0,0,0,27.77,59.77,247,247,0,0,0,29.05,37,264.44,264.44,0,0,0,21.1,19.76c4.14,3.48,8.43,6.74,12.76,9.94,4.61,3.4,9.3,6.69,14.2,9.69,7.29,4.46,14.69,8.7,22.35,12.47,7.45,3.67,15.1,6.87,22.87,9.81a267.49,267.49,0,0,0,30.66,9.35c5.64,1.39,11.42,2.23,17.15,3.3.7.13,1.42.13,2.14.22s1.06-.19,1.06-.91c0-.48,0-1,0-1.44q0-24.84,0-49.67C266,492,266.21,492.44,263.72,491.93Z" transform="translate(-8.09 -8.93)"/><path class="c" d="M61,254.61H87.38v.11c9,0,18,0,27,0,1.19,0,1.58-.29,1.91-1.44,1.16-4,2.55-7.86,3.74-11.81.53-1.76,1.37-3.4,1.94-5.11a66.83,66.83,0,0,1,3.49-8.84c2.11-4.24,4.11-8.53,6.27-12.74a136.4,136.4,0,0,1,9.12-15.24c3.13-4.54,6.07-9.23,9.76-13.41,2.17-2.45,4.62-4.75,6.18-7.73a1.8,1.8,0,0,1,1.09-.88,2.48,2.48,0,0,0,1.53-1.42,8.83,8.83,0,0,1,2-2.41c2-2.1,4.19-4.14,6.25-6.25s4.11-4,6.26-5.85c1.78-1.51,3.32-3.37,5.34-4.56,1.59-1,2.71-2.39,4.13-3.47,3.54-2.69,7.3-5.09,10.86-7.75a109.19,109.19,0,0,1,11-7c4.52-2.64,9.22-5,13.92-7.29a158.63,158.63,0,0,1,17.62-7.31c3.71-1.3,7.5-2.39,11.27-3.57a154.92,154.92,0,0,1,19.24-4.54c1.44-.26,1.64-.86,1.63-2,0-6.85-.12-13.71,0-20.57.08-7.65-.09-15.31-.14-23,0-3.28,0-6.55,0-9.82,0-1-.28-1.32-1.23-1.13-1.25.26-2.51.49-3.76.7-3.54.6-7.1,1.06-10.6,1.79-6.53,1.37-13,3.09-19.42,4.83a218.27,218.27,0,0,0-23.3,7.83c-7.1,2.82-14.11,5.87-20.92,9.38-6.64,3.42-13.17,7-19.52,11-5.6,3.47-11,7.19-16.31,11.13-3.74,2.78-7.44,5.59-11,8.59-3.15,2.65-6.24,5.36-9.32,8.08-5.44,4.8-10.41,10.07-15.35,15.35-2.81,3-5.51,6.13-8.14,9.31-2.22,2.69-4.48,5.38-6.55,8.17-4.91,6.63-9.67,13.37-13.94,20.46a253.73,253.73,0,0,0-14,26.35,223.86,223.86,0,0,0-10.36,27c-1.23,4-2.54,8-3.52,12.13-.81,3.39-1.43,6.84-2.58,10.15C58.1,254.14,58.52,254.61,61,254.61Z" transform="translate(-8.09 -8.93)"/><path class="b" d="M547,341.23c-.56,0-1.12,0-1.68,0H495.21c-2.14,0-2.2,0-2.65,2.16a168.28,168.28,0,0,1-4.16,16.44,193.5,193.5,0,0,1-10.8,27.58,177.78,177.78,0,0,1-11.7,20.53c-2.25,3.35-4.67,6.58-6.87,9.95-1.62,2.47-3.77,4.48-5.55,6.81a27.83,27.83,0,0,1-2.45,3c-1.49,1.49-2.89,3.1-4.28,4.63-3.35,3.66-6.88,7.11-10.39,10.59a39.73,39.73,0,0,1-4.64,4.38c-1.74,1.22-3,2.91-4.78,4s-3.17,2.77-4.85,4c-2.15,1.61-4.41,3.09-6.55,4.68a155.07,155.07,0,0,1-18,11.45,181.82,181.82,0,0,1-22.66,10.61,204.14,204.14,0,0,1-22.24,7.28c-2.23.57-4.48,1.07-6.74,1.54-1.28.27-2,.87-1.83,2.28a6,6,0,0,1,0,.95v49.2c0,.48,0,1,0,1.44,0,1,.32,1.42,1.44,1.19,5.3-1.11,10.62-2.08,15.89-3.38a267.21,267.21,0,0,0,29-8.88,251.89,251.89,0,0,0,42.92-20.91A259.67,259.67,0,0,0,457,496.37c4.74-3.64,9.22-7.58,13.67-11.58A231.92,231.92,0,0,0,490,465.21c3.56-4,7-8.21,10.2-12.56,1.88-2.52,3.93-5,5.78-7.54a230.34,230.34,0,0,0,15.28-24.33c3.35-6.17,6.53-12.44,9.33-18.89,2.68-6.15,5.23-12.35,7.37-18.71,1.63-4.84,3.19-9.7,4.52-14.63,1.62-6,3.09-12,4.31-18.12.51-2.57,1-5.16,1.46-7.74C548.47,341.69,548.13,341.16,547,341.23Z" transform="translate(-8.09 -8.93)"/><path class="d" d="M346.19,115c0,2,0,2,2,2.5,4.57,1,9.06,2.39,13.54,3.77a185.36,185.36,0,0,1,20.13,7.56c3.43,1.51,6.83,3.1,10.14,4.85q8.31,4.37,16.31,9.3c3.19,2,6.21,4.17,9.22,6.36,2.81,2,5.64,4.08,8.27,6.41,3.57,3.18,7.35,6.15,10.72,9.54,5.41,5.43,10.93,10.73,15.78,16.72,2.89,3.56,6,7,8.59,10.78,3.43,5.13,7.05,10.12,10.07,15.55a222,222,0,0,1,11.34,23.07,170.82,170.82,0,0,1,8.28,24.72c.45,1.86.88,3.73,1.31,5.59a1.47,1.47,0,0,0,1.59,1.37c3.26.05,6.53.18,9.78.19s6.34,0,9.52.05c11.11.13,22.23.06,33.34,0,1.67,0,1.88-.26,1.57-1.79-1.44-7.11-2.9-14.23-4.83-21.23a248.47,248.47,0,0,0-13.28-36.92,235.12,235.12,0,0,0-20.92-37.08,254.08,254.08,0,0,0-23.48-29.2,265.69,265.69,0,0,0-20.74-19.81,250.75,250.75,0,0,0-22.3-16.91q-9.22-6.26-19-11.62a245.36,245.36,0,0,0-33.07-15.11q-6.72-2.48-13.55-4.64c-3.88-1.21-7.82-2.2-11.73-3.28-5.77-1.6-11.65-2.67-17.5-3.9-.71-.14-1.08.08-1.09.81s0,1.28,0,1.92q0,12.36,0,24.72h0Q346.19,102.18,346.19,115Z" transform="translate(-8.09 -8.93)"/><path class="e" d="M256.94,298.42a18,18,0,0,0-1.06-2.1,135.28,135.28,0,0,1-7.12-13A209.65,209.65,0,0,1,238,257.08c-1.9-5.81-3.7-11.62-5.17-17.56a155,155,0,0,1-3.33-16.36c-.12-.82-.48-1.11-1.23-1.11H195.15c-.59,0-1.25-.21-1.83.34.87,2.81,1.62,5.66,2.63,8.41,2,5.45,4.11,10.85,6.49,16.15,5.8,12.9,13,24.8,23.08,34.9a61,61,0,0,0,25.36,15.65l.71.22a13.35,13.35,0,0,0,5.13.91h0c.1.15.22.22.34.16a.45.45,0,0,0,.12-.12S257,298.51,256.94,298.42Z" transform="translate(-8.09 -8.93)"/><path class="e" d="M348.32,298.83s.21-.18.32-.27a10,10,0,0,0,3.32-.31,61,61,0,0,0,26-14.56,98,98,0,0,0,16.91-21.33,166.42,166.42,0,0,0,14.53-31.88,50,50,0,0,0,2.44-8.16,3.63,3.63,0,0,0-2-.27H378.21c-.32,0-.64,0-1,0-1,0-1.41.43-1.45,1.44a38.71,38.71,0,0,1-1,6.35c-1.71,7.76-3.59,15.48-6,23.07q-2.86,9-6.44,17.68c-2.81,6.86-6.13,13.49-9.56,20.07-.17.33-.34.65-.53,1a72.84,72.84,0,0,0-3.85,6.69h0C348.19,298.46,348,298.63,348.32,298.83Z" transform="translate(-8.09 -8.93)"/><path class="c" d="M205.05,172.23a9.84,9.84,0,0,1,8.08-3.42c8.11.46,16.24.72,24.35,1.22,6.25.4,12.11.22,17.68-3.63,8.43-5.83,17.74-4.73,25.3,2.32,9.47,8.83,17.92,18.48,23.65,30.25,2.69,5.54,2.83,11.43,3.07,17.38a16.2,16.2,0,0,0,6.88,13,32.84,32.84,0,0,1,4.05,4.17c6.05-2.92,11.65-6,17.53-8.34,7.1-2.87,14.54-4.33,22.29-3a24,24,0,0,1,13.51,6.6c1.61,1.62,3,1.57,4.86,1,14.34-4.1,28.88-7.3,43.89-6.69a67.72,67.72,0,0,1,16.2,3c2.84.85,5.48,3,7.7,5.17,3.49,3.34,2.58,6.87-2.2,8.23-4.46,1.27-9.13,1.86-13.71,2.7S419,244,414.39,244.55c-9.51,1.07-17.59,5.83-26.19,9.35-9.56,3.92-17.77,9.67-25.95,15.8-3.42,2.56-8.41,3.16-12.78,4.29-2.69.69-5.56.7-8.51,1,1.6,4,3.3,8.1,4.83,12.23,3.83,10.3,5.41,21,6.55,31.91,1.66,16,4,31.91,3.42,48.1A131.27,131.27,0,0,1,350.21,402c-6.8,21.78-5.19,17.2.84,35.56,1.74,5.31,4.38,10.33,6.47,15.53a12.91,12.91,0,0,1,.4,3.61c-1.15.05-2.4.43-3.44.11-6.75-2.07-12.88-4.8-16.11-11.93-1.38-3-4.12-5.49-6.44-8-.86-.94-2.29-1.36-3.84-2.22-1.11,4.83-1.95,9.14-3.11,13.37a143,143,0,0,1-4.57,14.38,6.79,6.79,0,0,1-4.06,3.48c-3.32.9-6.83,1.08-10.26,1.55H292.4l-1.5-2.11-12,.83-.11-.79c1.38-1.2,2.77-2.39,4.7-4.05-4.4.37-8.25,1.86-11.43-1.69,3.49-3.6,8.14-4.69,12.71-5.83,2.82-.7,5.79-.83,8.65-1.42,2.67-.55,4.66-2.08,4.7-5,.09-6.77.26-13.56-.08-20.32a16.76,16.76,0,0,0-4.47-10.87c-4.05-4.35-7.87-8.9-11.77-13.39a59.66,59.66,0,0,1-12.38-21.83c-1.07-3.5-1.62-7.2-3-10.55-8.52-20.18-13.24-41.24-15.59-62.93-1.59-14.59-3.79-29.14-2.75-43.88.59-8.39,2.38-16.39,7.54-23.41a15,15,0,0,0,2.73-7c.56-5.38,1.9-10.34,5-14.85,2.36-3.43,2.06-5.21-.67-8.26-4.54-5.09-9.43-10.11-11.07-16.92-1.08-4.46-3.46-7.47-7.4-9.18a128.07,128.07,0,0,0-17-6.45c-7.27-2-14.78-3.11-22.19-4.61Z" transform="translate(-8.09 -8.93)"/></svg>